# xmcd CD database file
#
# Track frame offsets:
#	150
#	24022
#	45050
#	63102
#	81480
#	101885
#	117635
#	135707
#	156790
#	172327
#	179455
#	207842
#
# Disc length: 2948 seconds
#
# Revision: 0
# Processed by: cddbd v1.5PL3 Copyright (c) Steve Scherf et al.
# Submitted via: CDex 1.51
#
DISCID=a00b820c
DTITLE=大島ミチル - 蒼き狼と白き牝鹿・元朝秘史
DYEAR=1992
DGENRE=Game
TTITLE0=ゴビ
TTITLE1=流浪の民
TTITLE2=華龍
TTITLE3=ガルーダ
TTITLE4=異教の地
TTITLE5=ララバイ
TTITLE6=弔鐘
TTITLE7=馬上の狼
TTITLE8=祈り
TTITLE9=高原の覇者
TTITLE10=遥かなる星
TTITLE11=我が祖国
EXTD=YEAR: 1992
EXTT0=
EXTT1=
EXTT2=
EXTT3=
EXTT4=
EXTT5=
EXTT6=
EXTT7=
EXTT8=
EXTT9=
EXTT10=
EXTT11=
PLAYORDER=
